<svg xmlns="http://www.w3.org/2000/svg" width="131.731" height="24" viewBox="0 0 131.731 24">
  <path id="Union_4" data-name="Union 4" d="M-5561.846,2423.519a8.109,8.109,0,0,1-2.862-1.387v0a6.328,6.328,0,0,0-2.092-1.11,7.966,7.966,0,0,0-2.5-.4,3.93,3.93,0,0,0-2.875.908,3.442,3.442,0,0,0-.89,2.27h-3.913a6.747,6.747,0,0,1,1.854-4.54,7.628,7.628,0,0,1,5.5-1.816,13.3,13.3,0,0,1,3.619.479,8.171,8.171,0,0,1,2.861,1.387,6.325,6.325,0,0,0,2.093,1.107,7.939,7.939,0,0,0,2.5.406,3.919,3.919,0,0,0,2.875-.911,3.765,3.765,0,0,0,.908-2.773v-.453a5.126,5.126,0,0,1-1.791,1.159,6.06,6.06,0,0,1-2.219.4,5.8,5.8,0,0,1-4.236-1.526,6.12,6.12,0,0,1-1.563-4.576v-6.808h3.935v6.228q0,3.3,2.748,3.3a2.957,2.957,0,0,0,2.27-.918,3.9,3.9,0,0,0,.858-2.739v-5.872h3.934v11.295q0,3.733-1.892,5.547a7.636,7.636,0,0,1-5.5,1.819A13.287,13.287,0,0,1-5561.846,2423.519Zm67.641-.944a4.558,4.558,0,0,1-1.287-3.468v-13.382a2.734,2.734,0,0,0-.618-1.942,2.326,2.326,0,0,0-1.778-.656,2.342,2.342,0,0,0-1.753.631,2.681,2.681,0,0,0-.643,1.892h3.379v3.026h-3.379v10.238h-3.933v-10.238h-2.093v-3.026h2.093a5.7,5.7,0,0,1,1.791-4.135,6.528,6.528,0,0,1,4.563-1.513,6.415,6.415,0,0,1,4.69,1.588,5.874,5.874,0,0,1,1.615,4.388v12.878a1.886,1.886,0,0,0,.441,1.349,1.631,1.631,0,0,0,1.247.467,2.717,2.717,0,0,0,1.135-.252l.177,3.052a6.687,6.687,0,0,1-2.068.328A4.984,4.984,0,0,1-5494.205,2422.574Zm-54.114,1.223v-18.459h3.758v1.564a5.218,5.218,0,0,1,4.262-1.765,6.914,6.914,0,0,1,3.441.87,6.259,6.259,0,0,1,2.434,2.446,7.381,7.381,0,0,1,.881,3.668,7.387,7.387,0,0,1-.881,3.67,6.256,6.256,0,0,1-2.434,2.445,6.914,6.914,0,0,1-3.441.87,5.238,5.238,0,0,1-4.086-1.638v6.329Zm4.855-14.412a3.807,3.807,0,0,0-.971,2.736,3.807,3.807,0,0,0,.971,2.737,3.274,3.274,0,0,0,2.483,1.021,3.276,3.276,0,0,0,2.484-1.021,3.807,3.807,0,0,0,.971-2.737,3.807,3.807,0,0,0-.971-2.736,3.279,3.279,0,0,0-2.484-1.02A3.277,3.277,0,0,0-5543.464,2409.385Zm57.294,8.833a6.629,6.629,0,0,1-2.66-2.483,6.833,6.833,0,0,1-.958-3.606,6.83,6.83,0,0,1,.958-3.605,6.644,6.644,0,0,1,2.66-2.484,8.129,8.129,0,0,1,3.845-.9,8.061,8.061,0,0,1,3.833.9,6.676,6.676,0,0,1,2.648,2.484,6.839,6.839,0,0,1,.958,3.605,6.842,6.842,0,0,1-.958,3.606,6.661,6.661,0,0,1-2.648,2.483,8.043,8.043,0,0,1-3.833.9A8.112,8.112,0,0,1-5486.169,2418.218Zm1.349-8.824a3.778,3.778,0,0,0-.983,2.735,3.779,3.779,0,0,0,.983,2.737,3.315,3.315,0,0,0,2.5,1.021,3.276,3.276,0,0,0,2.484-1.021,3.808,3.808,0,0,0,.971-2.737,3.807,3.807,0,0,0-.971-2.735,3.276,3.276,0,0,0-2.484-1.021A3.315,3.315,0,0,0-5484.82,2409.394Zm-43.527,8.817a6.549,6.549,0,0,1-2.724-2.483,6.842,6.842,0,0,1-.957-3.607,6.933,6.933,0,0,1,.944-3.593,6.627,6.627,0,0,1,2.6-2.5,7.68,7.68,0,0,1,3.72-.9,7.583,7.583,0,0,1,3.529.82,6.306,6.306,0,0,1,2.535,2.371,6.9,6.9,0,0,1,.946,3.668l-10.036,1.942a3.01,3.01,0,0,0,1.349,1.513,4.631,4.631,0,0,0,2.256.5,5.208,5.208,0,0,0,1.879-.315,4.553,4.553,0,0,0,1.526-1l2.093,2.27a7.038,7.038,0,0,1-5.6,2.193A8.858,8.858,0,0,1-5528.347,2418.211Zm1.16-9.141a3.809,3.809,0,0,0-.983,2.648l6.606-1.286a2.967,2.967,0,0,0-1.134-1.688,3.4,3.4,0,0,0-2.068-.63A3.232,3.232,0,0,0-5527.187,2409.07Zm68.981,9.843a2.363,2.363,0,0,1-2.221-1.558l-2.254-6.224a.251.251,0,0,0-.471,0l-2.339,6.249a2.364,2.364,0,0,1-2.212,1.534h-.486a2.363,2.363,0,0,1-2.221-1.561l-4.209-11.67a.252.252,0,0,1,.237-.336h3.171a.252.252,0,0,1,.237.169l2.912,8.344a.252.252,0,0,0,.474,0l2.523-6.959a2.361,2.361,0,0,1,2.219-1.557,2.362,2.362,0,0,1,2.228,1.579l2.439,6.934a.25.25,0,0,0,.472,0l3.005-8.348a.251.251,0,0,1,.235-.167h2.945a.253.253,0,0,1,.237.338l-4.231,11.673a2.362,2.362,0,0,1-2.22,1.557Zm-58.04,0v-13.567h3.758v1.791a4.377,4.377,0,0,1,1.9-1.488,7.069,7.069,0,0,1,2.762-.5v3.632q-.656-.05-.883-.05a3.6,3.6,0,0,0-2.647.946,3.818,3.818,0,0,0-.958,2.836v6.406ZM-5583,2418.9v-17.652h4.085v6.961h8.019v-6.961h4.084v14.627a12.981,12.981,0,0,0-4.084-.252v-3.96h-8.019v7.237Z" transform="translate(5583 -2400)" fill="#fff"/>
</svg>
