<svg xmlns="http://www.w3.org/2000/svg" width="30.157" height="30.568" viewBox="0 0 30.157 30.568">
  <path id="OpenAI_Logo" d="M13.479,0A7.733,7.733,0,0,0,6.13,5.332a7.719,7.719,0,0,0-4.14,12.722A7.586,7.586,0,0,0,2.642,24.3,7.719,7.719,0,0,0,10.943,28a7.622,7.622,0,0,0,5.735,2.567,7.733,7.733,0,0,0,7.35-5.331,7.6,7.6,0,0,0,5.083-3.7,7.683,7.683,0,0,0-.942-9.026v-.01a7.615,7.615,0,0,0-.652-6.252,7.721,7.721,0,0,0-8.292-3.7A7.651,7.651,0,0,0,13.479,0Zm0,1.988-.01.01a5.738,5.738,0,0,1,3.675,1.325c-.041.021-.124.072-.186.1L10.871,6.936a.991.991,0,0,0-.5.87v8.24L7.755,14.535V7.723a5.733,5.733,0,0,1,5.724-5.735Zm7.332,2.4a5.732,5.732,0,0,1,5.659,6.7c-.041-.031-.124-.072-.176-.1l-6.087-3.52a1.02,1.02,0,0,0-1,0l-7.132,4.12V8.561l5.89-3.406a5.7,5.7,0,0,1,2.85-.769ZM5.757,7.516v7.236a1,1,0,0,0,.5.87l7.122,4.11-2.63,1.521-5.88-3.4A5.736,5.736,0,0,1,5.757,7.516ZM19.4,9.307l5.89,3.4a5.722,5.722,0,0,1,2.091,7.826l.01.01a5.714,5.714,0,0,1-2.981,2.505V15.807a.99.99,0,0,0-.5-.869l-7.132-4.12ZM15.074,11.8l3,1.739v3.468l-3,1.739-3-1.739V13.541Zm4.72,2.733,2.619,1.511v6.8a5.732,5.732,0,0,1-5.724,5.735v-.01a5.712,5.712,0,0,1-3.665-1.325c.041-.021.135-.073.186-.1L19.3,23.634a.97.97,0,0,0,.5-.87Zm-1.708,4.451v3.022L12.2,25.4A5.74,5.74,0,0,1,4.37,23.312h.01a5.683,5.683,0,0,1-.683-3.83c.041.031.124.072.176.1l6.087,3.52a1.02,1.02,0,0,0,1,0Z" transform="translate(0.001 -0.001)" fill="#534560"/>
</svg>
