<svg width="592" height="256" viewBox="0 0 592 256" fill="none" xmlns="http://www.w3.org/2000/svg">
<path d="M2 4C3.10457 4 4 3.10457 4 2C4 0.89543 3.10457 0 2 0C0.89543 0 0 0.89543 0 2C0 3.10457 0.89543 4 2 4Z" fill="white"/>
<path d="M86 4C87.1046 4 88 3.10457 88 2C88 0.89543 87.1046 0 86 0C84.8954 0 84 0.89543 84 2C84 3.10457 84.8954 4 86 4Z" fill="white"/>
<path d="M170 4C171.105 4 172 3.10457 172 2C172 0.89543 171.105 0 170 0C168.895 0 168 0.89543 168 2C168 3.10457 168.895 4 170 4Z" fill="white"/>
<path d="M254 4C255.105 4 256 3.10457 256 2C256 0.89543 255.105 0 254 0C252.895 0 252 0.89543 252 2C252 3.10457 252.895 4 254 4Z" fill="white"/>
<path d="M338 4C339.105 4 340 3.10457 340 2C340 0.89543 339.105 0 338 0C336.895 0 336 0.89543 336 2C336 3.10457 336.895 4 338 4Z" fill="white"/>
<path d="M422 4C423.105 4 424 3.10457 424 2C424 0.89543 423.105 0 422 0C420.895 0 420 0.89543 420 2C420 3.10457 420.895 4 422 4Z" fill="white"/>
<path d="M506 4C507.105 4 508 3.10457 508 2C508 0.89543 507.105 0 506 0C504.895 0 504 0.89543 504 2C504 3.10457 504.895 4 506 4Z" fill="white"/>
<path d="M590 4C591.105 4 592 3.10457 592 2C592 0.89543 591.105 0 590 0C588.895 0 588 0.89543 588 2C588 3.10457 588.895 4 590 4Z" fill="white"/>
<path d="M2 88C3.10457 88 4 87.1046 4 86C4 84.8954 3.10457 84 2 84C0.89543 84 0 84.8954 0 86C0 87.1046 0.89543 88 2 88Z" fill="white"/>
<path d="M86 88C87.1046 88 88 87.1046 88 86C88 84.8954 87.1046 84 86 84C84.8954 84 84 84.8954 84 86C84 87.1046 84.8954 88 86 88Z" fill="white"/>
<path d="M170 88C171.105 88 172 87.1046 172 86C172 84.8954 171.105 84 170 84C168.895 84 168 84.8954 168 86C168 87.1046 168.895 88 170 88Z" fill="white"/>
<path d="M254 88C255.105 88 256 87.1046 256 86C256 84.8954 255.105 84 254 84C252.895 84 252 84.8954 252 86C252 87.1046 252.895 88 254 88Z" fill="white"/>
<path d="M338 88C339.105 88 340 87.1046 340 86C340 84.8954 339.105 84 338 84C336.895 84 336 84.8954 336 86C336 87.1046 336.895 88 338 88Z" fill="white"/>
<path d="M422 88C423.105 88 424 87.1046 424 86C424 84.8954 423.105 84 422 84C420.895 84 420 84.8954 420 86C420 87.1046 420.895 88 422 88Z" fill="white"/>
<path d="M506 88C507.105 88 508 87.1046 508 86C508 84.8954 507.105 84 506 84C504.895 84 504 84.8954 504 86C504 87.1046 504.895 88 506 88Z" fill="white"/>
<path d="M590 88C591.105 88 592 87.1046 592 86C592 84.8954 591.105 84 590 84C588.895 84 588 84.8954 588 86C588 87.1046 588.895 88 590 88Z" fill="white"/>
<path d="M2 172C3.10457 172 4 171.105 4 170C4 168.895 3.10457 168 2 168C0.89543 168 0 168.895 0 170C0 171.105 0.89543 172 2 172Z" fill="white"/>
<path d="M86 172C87.1046 172 88 171.105 88 170C88 168.895 87.1046 168 86 168C84.8954 168 84 168.895 84 170C84 171.105 84.8954 172 86 172Z" fill="white"/>
<path d="M170 172C171.105 172 172 171.105 172 170C172 168.895 171.105 168 170 168C168.895 168 168 168.895 168 170C168 171.105 168.895 172 170 172Z" fill="white"/>
<path d="M254 172C255.105 172 256 171.105 256 170C256 168.895 255.105 168 254 168C252.895 168 252 168.895 252 170C252 171.105 252.895 172 254 172Z" fill="white"/>
<path d="M338 172C339.105 172 340 171.105 340 170C340 168.895 339.105 168 338 168C336.895 168 336 168.895 336 170C336 171.105 336.895 172 338 172Z" fill="white"/>
<path d="M422 172C423.105 172 424 171.105 424 170C424 168.895 423.105 168 422 168C420.895 168 420 168.895 420 170C420 171.105 420.895 172 422 172Z" fill="white"/>
<path d="M506 172C507.105 172 508 171.105 508 170C508 168.895 507.105 168 506 168C504.895 168 504 168.895 504 170C504 171.105 504.895 172 506 172Z" fill="white"/>
<path d="M590 172C591.105 172 592 171.105 592 170C592 168.895 591.105 168 590 168C588.895 168 588 168.895 588 170C588 171.105 588.895 172 590 172Z" fill="white"/>
<path d="M2 256C3.10457 256 4 255.105 4 254C4 252.895 3.10457 252 2 252C0.89543 252 0 252.895 0 254C0 255.105 0.89543 256 2 256Z" fill="white"/>
<path d="M86 256C87.1046 256 88 255.105 88 254C88 252.895 87.1046 252 86 252C84.8954 252 84 252.895 84 254C84 255.105 84.8954 256 86 256Z" fill="white"/>
<path d="M170 256C171.105 256 172 255.105 172 254C172 252.895 171.105 252 170 252C168.895 252 168 252.895 168 254C168 255.105 168.895 256 170 256Z" fill="white"/>
<path d="M254 256C255.105 256 256 255.105 256 254C256 252.895 255.105 252 254 252C252.895 252 252 252.895 252 254C252 255.105 252.895 256 254 256Z" fill="white"/>
<path d="M338 256C339.105 256 340 255.105 340 254C340 252.895 339.105 252 338 252C336.895 252 336 252.895 336 254C336 255.105 336.895 256 338 256Z" fill="white"/>
<path d="M422 256C423.105 256 424 255.105 424 254C424 252.895 423.105 252 422 252C420.895 252 420 252.895 420 254C420 255.105 420.895 256 422 256Z" fill="white"/>
<path d="M506 256C507.105 256 508 255.105 508 254C508 252.895 507.105 252 506 252C504.895 252 504 252.895 504 254C504 255.105 504.895 256 506 256Z" fill="white"/>
<path d="M590 256C591.105 256 592 255.105 592 254C592 252.895 591.105 252 590 252C588.895 252 588 252.895 588 254C588 255.105 588.895 256 590 256Z" fill="white"/>
</svg>
