<svg width="390" height="1772" viewBox="0 0 390 1772" fill="none" xmlns="http://www.w3.org/2000/svg">
<g clip-path="url(#clip0_2013_25)">
<path d="M502.315 1771.2C446.675 1771.31 392.532 1753.19 348.177 1719.6C303.823 1686 271.703 1638.8 256.738 1585.21C252.306 1569.37 249.524 1553.51 246.838 1538.17C245.996 1533.37 245.17 1528.65 244.309 1524.02C218.398 1538.66 188.771 1543.33 162.54 1535.53C137.946 1528.23 116.756 1507.97 107.24 1482.67C98.7449 1460.08 100.646 1436.39 112.456 1417.66C137.021 1378.7 191.266 1374.87 226.517 1395.73C239.961 1403.69 251.736 1414.84 261.588 1428.82C268.218 1413.34 272.888 1396.57 276.907 1380.08C318.807 1208.24 304.425 1025.14 290.513 848.08C288.913 827.675 287.339 807.302 285.792 786.961C271.523 595.698 263.367 375.337 347.713 180.58C370.748 127.398 395.738 88.9305 426.359 59.5195C466.548 20.9195 517.378 -0.380509 565.818 1.06949L564.318 51.0475C529.218 49.9955 491.556 66.2275 460.992 95.5805C435.318 120.24 413.901 153.563 393.592 200.451C313.764 384.776 321.826 597.923 335.648 783.24C337.16 803.511 338.729 823.818 340.354 844.162C354.577 1025.15 369.277 1212.31 325.477 1391.93C318.059 1422.35 307.685 1456.69 286.958 1485.35C290.941 1500.24 293.551 1515.12 296.079 1529.53C298.672 1544.32 301.122 1558.29 304.884 1571.73C319.535 1624.09 356.834 1670.79 404.659 1696.65C452.484 1722.52 511.98 1728.16 563.813 1711.75L578.9 1759.42C554.124 1767.24 528.295 1771.21 502.315 1771.2ZM179.938 1433.21C169.283 1433.21 159.299 1437.11 154.746 1444.33C150.108 1451.69 152.31 1460.48 154.036 1465.07C158.095 1475.86 167.021 1484.71 176.774 1487.61C195.123 1493.06 215.064 1485.26 229.862 1473.56C223.511 1459.89 214.301 1446.61 201.051 1438.76C194.627 1435.08 187.342 1433.17 179.938 1433.21Z" fill="url(#paint0_linear_2013_25)"/>
</g>
<defs>
<linearGradient id="paint0_linear_2013_25" x1="0.42032" y1="886.099" x2="398.632" y2="886.099" gradientUnits="userSpaceOnUse">
<stop stop-color="#FF8989"/>
<stop offset="0.5" stop-color="#FDC880"/>
<stop offset="1" stop-color="#A54CFD"/>
</linearGradient>
<clipPath id="clip0_2013_25">
<rect width="390" height="1772" fill="white"/>
</clipPath>
</defs>
</svg>
