<svg width="360" height="3218" viewBox="0 0 360 3218" fill="none" xmlns="http://www.w3.org/2000/svg">
<g clip-path="url(#clip0_2015_47)">
<path d="M898.723 3613.92C600.07 3507.15 339.861 3249.14 184.805 2906.05C180.535 2896.6 176.12 2886.58 171.684 2876.05C135.639 2878.03 96.3201 2874.99 52.7131 2867.01C-135.876 2832.52 -300.506 2727.57 -410.849 2571.51C-534.211 2397.03 -584.82 2151.3 -539.783 1945.49C-489.277 1714.65 -317.562 1546.21 -140.363 1553.67C-86.8499 1555.93 -35.7459 1572.82 13.6761 1589.15C45.1871 1599.56 74.9521 1609.4 105.346 1615.77C325.205 1661.88 559.682 1497.33 650.762 1233.01C743.048 965.135 678.353 626.267 500.276 444.776C423.47 366.501 328.927 321.841 232.024 311.074C246.697 354.671 255.608 400 258.532 445.907C272.075 659.186 130.6 869.127 -38.2888 886.37C-45.1976 887.071 -52.1376 887.42 -59.0819 887.417C-138.225 887.423 -230.095 842.983 -263.032 738.688C-301.969 615.401 -235.382 479.013 -152.119 398.537C-63.0609 312.461 45.7381 266.054 156.171 259.02C100.548 148.468 13.3981 69.202 -46.0479 24.254C-92.3789 -10.775 -142.002 -42.319 -189.991 -72.826C-276.167 -127.605 -365.276 -184.249 -441.784 -264.5L-405.595 -299C-333.3 -223.17 -250.66 -170.638 -163.169 -115.022C-114.338 -83.981 -63.8428 -51.883 -15.8928 -15.629C51.6332 35.428 152.37 127.858 211.482 258.784C328.346 265.224 443.639 315.667 535.965 409.765C726.387 603.838 796.065 964.765 698.034 1249.31C610.177 1504.27 397.046 1673.47 179.734 1673.47C151.291 1673.48 122.923 1670.55 95.0842 1664.72C61.9352 1657.77 29.4261 1647.02 -2.01587 1636.63C-50.3079 1620.67 -95.9229 1605.6 -142.471 1603.63C-293.23 1597.29 -446.296 1752.14 -490.939 1956.18C-533.113 2148.9 -485.65 2379.11 -370.023 2542.65C-267.272 2687.97 -113.946 2785.7 61.7092 2817.83C94.6912 2823.86 124.735 2826.8 152.371 2826.59C127.127 2755.95 107.245 2670.56 117.778 2583.53C127.088 2506.64 167.278 2433.34 220.173 2396.78C253.135 2374 288.925 2366.47 323.673 2375C397.209 2393.07 466.823 2499.78 449.147 2624C435.408 2720.66 374.458 2805.95 290.08 2846.6C268.788 2856.85 246.336 2864.49 223.21 2869.35C225.626 2874.89 228.011 2880.26 230.365 2885.46C379.865 3216.26 629.607 3464.61 915.553 3566.84L898.723 3613.92ZM295.658 2421.6C280.083 2421.6 264.318 2427.06 248.602 2437.92C207.592 2466.26 174.965 2527.19 167.416 2589.54C157.437 2671.99 178.674 2754.69 203.978 2822.09C226.292 2818.25 247.966 2811.34 268.384 2801.56C336.874 2768.56 388.399 2696.11 399.648 2616.97C411.789 2531.64 369.071 2437.65 311.748 2423.57C306.484 2422.26 301.081 2421.6 295.658 2421.6ZM178.011 308.583C72.5252 310.536 -32.4329 352.396 -117.37 434.489C-217.556 531.32 -238.77 649.48 -215.353 723.63C-187.908 810.535 -106.963 843.13 -43.3688 836.63C100.467 821.944 220.579 637.223 208.631 449.077C205.536 400.974 195.213 353.612 178.011 308.583Z" fill="url(#paint0_linear_2015_47)"/>
</g>
<defs>
<linearGradient id="paint0_linear_2015_47" x1="-23.2978" y1="1657.46" x2="369.607" y2="1657.46" gradientUnits="userSpaceOnUse">
<stop stop-color="#FF8989"/>
<stop offset="0.5" stop-color="#FDC880"/>
<stop offset="1" stop-color="#A54CFD"/>
</linearGradient>
<clipPath id="clip0_2015_47">
<rect width="360" height="3218" fill="white"/>
</clipPath>
</defs>
</svg>
